<svg width="120" height="167" viewBox="0 0 168 215" fill="none" xmlns="http://www.w3.org/2000/svg">
<g filter="url(#filter0_dd)">
<rect x="24" y="8" width="120" height="167" rx="8" fill="white"/>
<rect x="25.5" y="9.5" width="117" height="164" rx="6.5" stroke="#7C01FF" stroke-width="3"/>
</g>
<path d="M124 16C117.376 16 112 21.376 112 28C112 34.624 117.376 40 124 40C130.624 40 136 34.624 136 28C136 21.376 130.624 16 124 16ZM120.748 33.148L116.44 28.84C115.972 28.372 115.972 27.616 116.44 27.148C116.908 26.68 117.664 26.68 118.132 27.148L121.6 30.604L129.856 22.348C130.324 21.88 131.08 21.88 131.548 22.348C132.016 22.816 132.016 23.572 131.548 24.04L122.44 33.148C121.984 33.616 121.216 33.616 120.748 33.148Z" fill="#7C01FF"/>
<path d="M56.9167 154.112C55.974 154.112 55.1527 153.907 54.4527 153.496C53.762 153.085 53.23 152.497 52.8567 151.732C52.4833 150.957 52.2967 150.047 52.2967 149.002C52.2967 147.957 52.4833 147.056 52.8567 146.3C53.23 145.535 53.762 144.947 54.4527 144.536C55.1527 144.125 55.974 143.92 56.9167 143.92C57.6073 143.92 58.2373 144.027 58.8067 144.242C59.3853 144.447 59.8847 144.76 60.3047 145.18L59.8707 146.062C59.3947 145.651 58.9233 145.357 58.4567 145.18C57.9993 145.003 57.4907 144.914 56.9307 144.914C55.8387 144.914 54.9893 145.269 54.3827 145.978C53.7853 146.687 53.4867 147.695 53.4867 149.002C53.4867 150.318 53.7853 151.335 54.3827 152.054C54.98 152.763 55.8293 153.118 56.9307 153.118C57.4907 153.118 57.9993 153.029 58.4567 152.852C58.9233 152.675 59.3947 152.381 59.8707 151.97L60.3047 152.852C59.8847 153.272 59.3853 153.589 58.8067 153.804C58.2373 154.009 57.6073 154.112 56.9167 154.112ZM65.4263 154.098C64.7636 154.098 64.1803 153.949 63.6763 153.65C63.1723 153.351 62.7803 152.927 62.5003 152.376C62.2296 151.825 62.0943 151.181 62.0943 150.444C62.0943 149.707 62.2296 149.063 62.5003 148.512C62.7803 147.961 63.1723 147.537 63.6763 147.238C64.1803 146.939 64.7636 146.79 65.4263 146.79C66.0889 146.79 66.6723 146.939 67.1763 147.238C67.6803 147.537 68.0676 147.961 68.3383 148.512C68.6183 149.063 68.7583 149.707 68.7583 150.444C68.7583 151.181 68.6183 151.825 68.3383 152.376C68.0676 152.927 67.6803 153.351 67.1763 153.65C66.6723 153.949 66.0889 154.098 65.4263 154.098ZM65.4263 153.16C66.1263 153.16 66.6629 152.931 67.0363 152.474C67.4096 152.007 67.5963 151.331 67.5963 150.444C67.5963 149.585 67.4049 148.923 67.0223 148.456C66.6396 147.98 66.1076 147.742 65.4263 147.742C64.7356 147.742 64.1989 147.98 63.8163 148.456C63.4336 148.923 63.2423 149.585 63.2423 150.444C63.2423 151.331 63.4289 152.007 63.8023 152.474C64.1849 152.931 64.7263 153.16 65.4263 153.16ZM71.086 143.696H72.22V154H71.086V143.696ZM77.8939 154.098C77.2313 154.098 76.6479 153.949 76.1439 153.65C75.6399 153.351 75.2479 152.927 74.9679 152.376C74.6973 151.825 74.5619 151.181 74.5619 150.444C74.5619 149.707 74.6973 149.063 74.9679 148.512C75.2479 147.961 75.6399 147.537 76.1439 147.238C76.6479 146.939 77.2313 146.79 77.8939 146.79C78.5566 146.79 79.1399 146.939 79.6439 147.238C80.1479 147.537 80.5353 147.961 80.8059 148.512C81.0859 149.063 81.2259 149.707 81.2259 150.444C81.2259 151.181 81.0859 151.825 80.8059 152.376C80.5353 152.927 80.1479 153.351 79.6439 153.65C79.1399 153.949 78.5566 154.098 77.8939 154.098ZM77.8939 153.16C78.5939 153.16 79.1306 152.931 79.5039 152.474C79.8773 152.007 80.0639 151.331 80.0639 150.444C80.0639 149.585 79.8726 148.923 79.4899 148.456C79.1073 147.98 78.5753 147.742 77.8939 147.742C77.2033 147.742 76.6666 147.98 76.2839 148.456C75.9013 148.923 75.7099 149.585 75.7099 150.444C75.7099 151.331 75.8966 152.007 76.2699 152.474C76.6526 152.931 77.1939 153.16 77.8939 153.16ZM91.3656 146.79C92.9243 146.79 93.7036 147.719 93.7036 149.576V154H92.5696V149.632C92.5696 148.969 92.453 148.489 92.2196 148.19C91.9956 147.891 91.627 147.742 91.1136 147.742C90.5163 147.742 90.0496 147.943 89.7136 148.344C89.3776 148.745 89.2096 149.291 89.2096 149.982V154H88.0756V149.632C88.0756 148.979 87.959 148.503 87.7256 148.204C87.4923 147.896 87.119 147.742 86.6056 147.742C86.0083 147.742 85.537 147.943 85.1916 148.344C84.8556 148.745 84.6876 149.291 84.6876 149.982V154H83.5536V148.932C83.5536 148.204 83.5163 147.546 83.4416 146.958H84.5196L84.6316 148.19C84.8276 147.742 85.117 147.397 85.4996 147.154C85.8916 146.911 86.3443 146.79 86.8576 146.79C87.4176 146.79 87.875 146.902 88.2296 147.126C88.5843 147.35 88.8456 147.695 89.0136 148.162C89.2283 147.742 89.541 147.411 89.9516 147.168C90.3716 146.916 90.843 146.79 91.3656 146.79ZM99.9323 146.79C100.548 146.79 101.094 146.939 101.57 147.238C102.046 147.537 102.415 147.961 102.676 148.512C102.938 149.053 103.068 149.688 103.068 150.416C103.068 151.144 102.938 151.788 102.676 152.348C102.415 152.899 102.046 153.328 101.57 153.636C101.094 153.944 100.548 154.098 99.9323 154.098C99.3817 154.098 98.901 153.977 98.4903 153.734C98.0797 153.491 97.767 153.146 97.5523 152.698V154H96.4183V143.696H97.5523V148.204C97.7577 147.747 98.0657 147.397 98.4763 147.154C98.8963 146.911 99.3817 146.79 99.9323 146.79ZM99.7223 153.16C100.404 153.16 100.936 152.922 101.318 152.446C101.701 151.961 101.892 151.284 101.892 150.416C101.892 149.567 101.701 148.909 101.318 148.442C100.945 147.975 100.413 147.742 99.7223 147.742C99.0223 147.742 98.4857 147.975 98.1123 148.442C97.739 148.909 97.5523 149.576 97.5523 150.444C97.5523 151.312 97.739 151.984 98.1123 152.46C98.4857 152.927 99.0223 153.16 99.7223 153.16ZM105.373 146.958H106.507V154H105.373V146.958ZM106.647 143.976V145.264H105.261V143.976H106.647ZM115.471 146.958V154H114.351V152.726C114.145 153.165 113.833 153.505 113.413 153.748C113.002 153.981 112.521 154.098 111.971 154.098C111.345 154.098 110.795 153.949 110.319 153.65C109.852 153.351 109.488 152.931 109.227 152.39C108.975 151.839 108.849 151.2 108.849 150.472C108.849 149.744 108.979 149.105 109.241 148.554C109.502 147.994 109.866 147.56 110.333 147.252C110.809 146.944 111.355 146.79 111.971 146.79C112.521 146.79 113.002 146.911 113.413 147.154C113.823 147.397 114.136 147.737 114.351 148.176V146.958H115.471ZM112.195 153.16C112.885 153.16 113.417 152.927 113.791 152.46C114.164 151.984 114.351 151.312 114.351 150.444C114.351 149.576 114.164 148.909 113.791 148.442C113.417 147.975 112.885 147.742 112.195 147.742C111.504 147.742 110.963 147.985 110.571 148.47C110.188 148.946 109.997 149.613 109.997 150.472C109.997 151.331 110.188 151.993 110.571 152.46C110.953 152.927 111.495 153.16 112.195 153.16Z" fill="black"/>
<g clip-path="url(#clip0)">
<path d="M52 91C52 73.327 66.327 59 84 59C101.673 59 116 73.327 116 91L84 93.7826L52 91Z" fill="#FFDA44"/>
<path d="M55.9999 107C61.533 116.565 71.8735 123 83.7179 123C95.5623 123 105.903 116.565 111.436 107L83.7179 104.913L55.9999 107Z" fill="#D80027"/>
<path d="M111.718 107C114.441 102.293 116 96.8289 116 91H52C52 96.8289 53.5593 102.293 56.282 107H111.718Z" fill="#0052B4"/>
</g>
<defs>
<filter id="filter0_dd" x="0" y="0" width="168" height="215" filterUnits="userSpaceOnUse" color-interpolation-filters="sRGB">
<feFlood flood-opacity="0" result="BackgroundImageFix"/>
<feColorMatrix in="SourceAlpha" type="matrix" values="0 0 0 0 0 0 0 0 0 0 0 0 0 0 0 0 0 0 127 0"/>
<feOffset dy="16"/>
<feGaussianBlur stdDeviation="12"/>
<feColorMatrix type="matrix" values="0 0 0 0 0.188235 0 0 0 0 0.192157 0 0 0 0 0.2 0 0 0 0.1 0"/>
<feBlend mode="normal" in2="BackgroundImageFix" result="effect1_dropShadow"/>
<feColorMatrix in="SourceAlpha" type="matrix" values="0 0 0 0 0 0 0 0 0 0 0 0 0 0 0 0 0 0 127 0"/>
<feOffset/>
<feGaussianBlur stdDeviation="0.5"/>
<feColorMatrix type="matrix" values="0 0 0 0 0.188235 0 0 0 0 0.192157 0 0 0 0 0.2 0 0 0 0.05 0"/>
<feBlend mode="normal" in2="effect1_dropShadow" result="effect2_dropShadow"/>
<feBlend mode="normal" in="SourceGraphic" in2="effect2_dropShadow" result="shape"/>
</filter>
<clipPath id="clip0">
<rect width="64" height="64" fill="white" transform="translate(52 59)"/>
</clipPath>
</defs>
</svg>
