<svg width="120" height="167" viewBox="0 0 168 215" fill="none" xmlns="http://www.w3.org/2000/svg">
<g filter="url(#filter0_dd)">
<rect x="24" y="8" width="120" height="167" rx="8" fill="white"/>
<rect x="25.5" y="9.5" width="117" height="164" rx="6.5" stroke="#7C01FF" stroke-width="3"/>
</g>
<path d="M124 16C117.376 16 112 21.376 112 28C112 34.624 117.376 40 124 40C130.624 40 136 34.624 136 28C136 21.376 130.624 16 124 16ZM120.748 33.148L116.44 28.84C115.972 28.372 115.972 27.616 116.44 27.148C116.908 26.68 117.664 26.68 118.132 27.148L121.6 30.604L129.856 22.348C130.324 21.88 131.08 21.88 131.548 22.348C132.016 22.816 132.016 23.572 131.548 24.04L122.44 33.148C121.984 33.616 121.216 33.616 120.748 33.148Z" fill="#7C01FF"/>
<path d="M70.6681 144.032V154H69.6041V146.594L66.3701 154H65.5581L62.2961 146.65L62.3101 154H61.2461V144.032H62.1981L65.9781 152.628L69.7161 144.032H70.6681ZM79.4409 150.444H74.2749C74.2843 151.34 74.4896 152.017 74.8909 152.474C75.3016 152.931 75.8943 153.16 76.6689 153.16C77.4903 153.16 78.2463 152.885 78.9369 152.334L79.3149 153.16C79.0069 153.449 78.6103 153.678 78.1249 153.846C77.6489 154.014 77.1589 154.098 76.6549 154.098C75.5536 154.098 74.6903 153.776 74.0649 153.132C73.4396 152.479 73.1269 151.587 73.1269 150.458C73.1269 149.739 73.2669 149.105 73.5469 148.554C73.8269 147.994 74.2189 147.56 74.7229 147.252C75.2269 146.944 75.8009 146.79 76.4449 146.79C77.3783 146.79 78.1109 147.098 78.6429 147.714C79.1749 148.321 79.4409 149.161 79.4409 150.234V150.444ZM76.4589 147.672C75.8709 147.672 75.3903 147.849 75.0169 148.204C74.6529 148.559 74.4196 149.058 74.3169 149.702H78.4189C78.3629 149.039 78.1669 148.535 77.8309 148.19C77.5043 147.845 77.0469 147.672 76.4589 147.672ZM76.0389 146.048L77.4389 143.192H78.7549L76.8369 146.048H76.0389ZM87.8565 154H86.4985L84.2725 151.228L82.0745 154H80.6885L83.6145 150.374L80.8565 146.958H82.2285L84.2725 149.548L86.3165 146.958H87.7025L84.9585 150.374L87.8565 154ZM89.6786 146.958H90.8126V154H89.6786V146.958ZM90.9526 143.976V145.264H89.5666V143.976H90.9526ZM96.5286 154.098C95.8472 154.098 95.2499 153.949 94.7366 153.65C94.2326 153.351 93.8406 152.931 93.5606 152.39C93.2899 151.839 93.1546 151.2 93.1546 150.472C93.1546 149.744 93.2946 149.105 93.5746 148.554C93.8546 147.994 94.2512 147.56 94.7646 147.252C95.2872 146.944 95.8939 146.79 96.5846 146.79C97.0606 146.79 97.5179 146.874 97.9566 147.042C98.4046 147.201 98.7732 147.425 99.0626 147.714L98.6846 148.554C98.3299 148.274 97.9846 148.069 97.6486 147.938C97.3219 147.807 96.9859 147.742 96.6406 147.742C95.9219 147.742 95.3572 147.985 94.9466 148.47C94.5359 148.946 94.3306 149.613 94.3306 150.472C94.3306 151.321 94.5312 151.984 94.9326 152.46C95.3432 152.927 95.9126 153.16 96.6406 153.16C96.9859 153.16 97.3219 153.095 97.6486 152.964C97.9846 152.833 98.3299 152.628 98.6846 152.348L99.0626 153.188C98.7639 153.468 98.3859 153.692 97.9286 153.86C97.4806 154.019 97.0139 154.098 96.5286 154.098ZM103.978 154.098C103.316 154.098 102.732 153.949 102.228 153.65C101.724 153.351 101.332 152.927 101.052 152.376C100.782 151.825 100.646 151.181 100.646 150.444C100.646 149.707 100.782 149.063 101.052 148.512C101.332 147.961 101.724 147.537 102.228 147.238C102.732 146.939 103.316 146.79 103.978 146.79C104.641 146.79 105.224 146.939 105.728 147.238C106.232 147.537 106.62 147.961 106.89 148.512C107.17 149.063 107.31 149.707 107.31 150.444C107.31 151.181 107.17 151.825 106.89 152.376C106.62 152.927 106.232 153.351 105.728 153.65C105.224 153.949 104.641 154.098 103.978 154.098ZM103.978 153.16C104.678 153.16 105.215 152.931 105.588 152.474C105.962 152.007 106.148 151.331 106.148 150.444C106.148 149.585 105.957 148.923 105.574 148.456C105.192 147.98 104.66 147.742 103.978 147.742C103.288 147.742 102.751 147.98 102.368 148.456C101.986 148.923 101.794 149.585 101.794 150.444C101.794 151.331 101.981 152.007 102.354 152.474C102.737 152.931 103.278 153.16 103.978 153.16Z" fill="black"/>
<g clip-path="url(#clip0)">
<path d="M84 123C101.673 123 116 108.673 116 91C116 73.3269 101.673 59 84 59C66.3269 59 52 73.3269 52 91C52 108.673 66.3269 123 84 123Z" fill="#F0F0F0"/>
<path d="M116 90.9998C116 78.313 108.617 67.351 97.9131 62.175V119.824C108.617 114.649 116 103.687 116 90.9998Z" fill="#D80027"/>
<path d="M52 90.9998C52 103.687 59.3831 114.649 70.087 119.825V62.175C59.3831 67.351 52 78.313 52 90.9998Z" fill="#6DA544"/>
<path d="M75.6521 90.9999C75.6521 95.6103 79.3896 99.3478 84 99.3478C88.6104 99.3478 92.3479 95.6103 92.3479 90.9999V88.2173H75.6521V90.9999Z" fill="#6DA544"/>
<path d="M95.1304 85.4347H86.7825C86.7825 83.898 85.5366 82.6521 83.9999 82.6521C82.4631 82.6521 81.2173 83.898 81.2173 85.4347H72.8694C72.8694 86.9716 74.208 88.2173 75.7446 88.2173H75.652C75.652 89.7542 76.8978 91 78.4346 91C78.4346 92.5368 79.6804 93.7826 81.2173 93.7826H86.7825C88.3194 93.7826 89.5651 92.5368 89.5651 91C91.102 91 92.3477 89.7542 92.3477 88.2173H92.255C93.7919 88.2173 95.1304 86.9716 95.1304 85.4347Z" fill="#FF9811"/>
</g>
<defs>
<filter id="filter0_dd" x="0" y="0" width="168" height="215" filterUnits="userSpaceOnUse" color-interpolation-filters="sRGB">
<feFlood flood-opacity="0" result="BackgroundImageFix"/>
<feColorMatrix in="SourceAlpha" type="matrix" values="0 0 0 0 0 0 0 0 0 0 0 0 0 0 0 0 0 0 127 0"/>
<feOffset dy="16"/>
<feGaussianBlur stdDeviation="12"/>
<feColorMatrix type="matrix" values="0 0 0 0 0.188235 0 0 0 0 0.192157 0 0 0 0 0.2 0 0 0 0.1 0"/>
<feBlend mode="normal" in2="BackgroundImageFix" result="effect1_dropShadow"/>
<feColorMatrix in="SourceAlpha" type="matrix" values="0 0 0 0 0 0 0 0 0 0 0 0 0 0 0 0 0 0 127 0"/>
<feOffset/>
<feGaussianBlur stdDeviation="0.5"/>
<feColorMatrix type="matrix" values="0 0 0 0 0.188235 0 0 0 0 0.192157 0 0 0 0 0.2 0 0 0 0.05 0"/>
<feBlend mode="normal" in2="effect1_dropShadow" result="effect2_dropShadow"/>
<feBlend mode="normal" in="SourceGraphic" in2="effect2_dropShadow" result="shape"/>
</filter>
<clipPath id="clip0">
<rect width="64" height="64" fill="white" transform="translate(52 59)"/>
</clipPath>
</defs>
</svg>
