<svg width="232" height="206" viewBox="0 0 232 206" fill="none" xmlns="http://www.w3.org/2000/svg">
<path d="M232 116.64C232 152.254 216.126 184.14 191.106 205.533H40.8943C15.8737 184.14 0 152.254 0 116.64C0 52.2216 51.9346 0 116 0C180.065 0 232 52.2216 232 116.64Z" fill="#EBF9FF"/>
<path d="M160.759 55.5872H201.625C202.42 55.5872 203.183 55.9052 203.745 56.4713C204.308 57.0375 204.624 57.8053 204.624 58.6059V79.1942C204.624 79.9949 204.308 80.7627 203.745 81.3288C203.183 81.895 202.42 82.213 201.625 82.213H160.759C160.365 82.213 159.975 82.1349 159.611 81.9832C159.247 81.8315 158.917 81.6091 158.638 81.3288C158.36 81.0485 158.139 80.7157 157.988 80.3495C157.837 79.9832 157.76 79.5907 157.76 79.1942V58.6059C157.76 57.8053 158.076 57.0374 158.638 56.4713C159.2 55.9052 159.963 55.5872 160.759 55.5872V55.5872Z" fill="#D4E8FF"/>
<path d="M172.038 68.1995H163.898C163.071 68.1995 162.4 68.8747 162.4 69.7075V77.9023C162.4 78.7352 163.071 79.4103 163.898 79.4103H172.038C172.866 79.4103 173.536 78.7352 173.536 77.9023V69.7075C173.536 68.8747 172.866 68.1995 172.038 68.1995Z" fill="#E9F2FF"/>
<path d="M185.493 68.1995H177.353C176.526 68.1995 175.855 68.8747 175.855 69.7075V77.9023C175.855 78.7352 176.526 79.4103 177.353 79.4103H185.493C186.321 79.4103 186.991 78.7352 186.991 77.9023V69.7075C186.991 68.8747 186.321 68.1995 185.493 68.1995Z" fill="#E9F2FF"/>
<path d="M198.486 68.1995H190.346C189.518 68.1995 188.848 68.8747 188.848 69.7075V77.9023C188.848 78.7352 189.518 79.4103 190.346 79.4103H198.486C199.313 79.4103 199.984 78.7352 199.984 77.9023V69.7075C199.984 68.8747 199.313 68.1995 198.486 68.1995Z" fill="#E9F2FF"/>
<path d="M193.489 59.3243C194.001 59.3243 194.417 58.906 194.417 58.3901C194.417 57.8741 194.001 57.4558 193.489 57.4558C192.976 57.4558 192.561 57.8741 192.561 58.3901C192.561 58.906 192.976 59.3243 193.489 59.3243Z" fill="#E9F2FF"/>
<path d="M196.272 59.3243C196.784 59.3243 197.2 58.906 197.2 58.3901C197.2 57.8741 196.784 57.4558 196.272 57.4558C195.759 57.4558 195.344 57.8741 195.344 58.3901C195.344 58.906 195.759 59.3243 196.272 59.3243Z" fill="#E9F2FF"/>
<path d="M199.057 59.3243C199.569 59.3243 199.985 58.906 199.985 58.3901C199.985 57.8741 199.569 57.4558 199.057 57.4558C198.544 57.4558 198.129 57.8741 198.129 58.3901C198.129 58.906 198.544 59.3243 199.057 59.3243Z" fill="#E9F2FF"/>
<path d="M185.922 63.5282H163.471C162.88 63.5282 162.4 63.9738 162.4 64.5234V64.8686C162.4 65.4182 162.88 65.8638 163.471 65.8638H185.922C186.513 65.8638 186.992 65.4182 186.992 64.8686V64.5234C186.992 63.9738 186.513 63.5282 185.922 63.5282Z" fill="#E9F2FF"/>
<path d="M173.414 59.7913H163.451C162.871 59.7913 162.4 60.2369 162.4 60.7866V61.1317C162.4 61.6813 162.871 62.1269 163.451 62.1269H173.414C173.994 62.1269 174.464 61.6813 174.464 61.1317V60.7866C174.464 60.2369 173.994 59.7913 173.414 59.7913Z" fill="#E9F2FF"/>
<path d="M56.2079 61.1927H27.3129C27.1384 61.1927 26.9657 61.2277 26.8045 61.2956C26.6433 61.3636 26.4968 61.4632 26.3735 61.5888C26.2501 61.7144 26.1522 61.8635 26.0855 62.0276C26.0187 62.1917 25.9844 62.3675 25.9844 62.5451V77.9343C25.9844 78.1119 26.0187 78.2877 26.0855 78.4518C26.1523 78.6159 26.2501 78.765 26.3735 78.8905C26.4968 79.0161 26.6433 79.1157 26.8045 79.1837C26.9657 79.2516 27.1384 79.2866 27.3129 79.2866H35.885C36.0701 79.2866 36.2532 79.326 36.4224 79.4022C36.5917 79.4784 36.7435 79.5898 36.868 79.7292L40.7774 84.1061C40.9019 84.2455 41.0537 84.3569 41.223 84.4331C41.3922 84.5093 41.5753 84.5487 41.7604 84.5487C41.9455 84.5487 42.1285 84.5093 42.2978 84.4331C42.4671 84.3569 42.6188 84.2455 42.7434 84.1061L46.6528 79.7292C46.7773 79.5898 46.929 79.4784 47.0983 79.4022C47.2676 79.326 47.4506 79.2866 47.6357 79.2866H56.2079C56.5602 79.2866 56.8981 79.1441 57.1473 78.8905C57.3964 78.6369 57.5364 78.2929 57.5364 77.9343V62.5451C57.5364 62.3675 57.502 62.1917 57.4353 62.0276C57.3685 61.8635 57.2707 61.7144 57.1473 61.5888C57.0239 61.4632 56.8775 61.3636 56.7163 61.2956C56.5551 61.2277 56.3823 61.1927 56.2079 61.1927Z" fill="#D4E8FF"/>
<path d="M34.3356 72.4035C35.6169 72.4035 36.6556 71.4624 36.6556 70.3015C36.6556 69.1406 35.6169 68.1995 34.3356 68.1995C33.0543 68.1995 32.0156 69.1406 32.0156 70.3015C32.0156 71.4624 33.0543 72.4035 34.3356 72.4035Z" fill="#E9F2FF"/>
<path d="M41.7595 72.4035C43.0408 72.4035 44.0795 71.4624 44.0795 70.3015C44.0795 69.1406 43.0408 68.1995 41.7595 68.1995C40.4782 68.1995 39.4395 69.1406 39.4395 70.3015C39.4395 71.4624 40.4782 72.4035 41.7595 72.4035Z" fill="#E9F2FF"/>
<path d="M49.1833 72.4035C50.4646 72.4035 51.5033 71.4624 51.5033 70.3015C51.5033 69.1406 50.4646 68.1995 49.1833 68.1995C47.902 68.1995 46.8633 69.1406 46.8633 70.3015C46.8633 71.4624 47.902 72.4035 49.1833 72.4035Z" fill="#E9F2FF"/>
<path d="M58.8397 104.635H36.278C35.4611 104.635 34.7988 105.302 34.7988 106.124V128.837C34.7988 129.66 35.4611 130.326 36.278 130.326H58.8397C59.6566 130.326 60.3188 129.66 60.3188 128.837V106.124C60.3188 105.302 59.6566 104.635 58.8397 104.635Z" fill="#D4E8FF"/>
<path d="M47.6581 117.247L52.7659 114.211C52.2478 113.288 51.5031 112.522 50.6066 111.989C49.7101 111.456 48.6933 111.175 47.6581 111.174C44.4226 111.174 41.7598 113.916 41.7598 117.247C41.7598 120.579 44.4222 123.32 47.6581 123.32C48.9587 123.317 50.2223 122.873 51.2531 122.056C52.2838 121.24 53.0243 120.096 53.3598 118.802L47.6581 117.247Z" fill="#E9F2FF"/>
<path d="M52.4316 107.204C52.4316 107.342 52.4861 107.478 52.588 107.593C52.69 107.708 52.8349 107.798 53.0045 107.851C53.1741 107.904 53.3607 107.918 53.5407 107.891C53.7207 107.864 53.8861 107.797 54.0158 107.699C54.1456 107.601 54.234 107.477 54.2698 107.341C54.3056 107.205 54.2872 107.064 54.217 106.936C54.1468 106.808 54.0278 106.698 53.8752 106.621C53.7226 106.544 53.5432 106.503 53.3596 106.503C53.2378 106.503 53.1171 106.521 53.0045 106.557C52.8919 106.592 52.7896 106.643 52.7034 106.708C52.6172 106.774 52.5489 106.851 52.5023 106.936C52.4556 107.021 52.4316 107.112 52.4316 107.204Z" fill="#E9F2FF"/>
<path d="M54.752 107.204C54.752 107.342 54.7928 107.478 54.8692 107.593C54.9457 107.708 55.0544 107.798 55.1816 107.851C55.3088 107.904 55.4487 107.918 55.5837 107.891C55.7187 107.864 55.8428 107.797 55.9401 107.699C56.0374 107.601 56.1037 107.477 56.1306 107.341C56.1574 107.205 56.1437 107.064 56.091 106.936C56.0383 106.808 55.9491 106.698 55.8346 106.621C55.7202 106.544 55.5856 106.503 55.448 106.503C55.3566 106.503 55.266 106.521 55.1816 106.557C55.0972 106.592 55.0204 106.643 54.9558 106.708C54.8912 106.774 54.8399 106.851 54.8049 106.936C54.7699 107.021 54.7519 107.112 54.752 107.204Z" fill="#E9F2FF"/>
<path d="M56.6074 107.204C56.6074 107.342 56.6618 107.478 56.7638 107.593C56.8658 107.708 57.0107 107.798 57.1803 107.851C57.3499 107.904 57.5365 107.918 57.7165 107.891C57.8965 107.864 58.0618 107.797 58.1916 107.699C58.3214 107.601 58.4098 107.477 58.4456 107.341C58.4814 107.205 58.463 107.064 58.3928 106.936C58.3225 106.808 58.2036 106.698 58.051 106.621C57.8984 106.544 57.719 106.503 57.5354 106.503C57.4136 106.503 57.2929 106.521 57.1803 106.557C57.0677 106.592 56.9654 106.643 56.8792 106.708C56.793 106.774 56.7247 106.851 56.678 106.936C56.6314 107.021 56.6074 107.112 56.6074 107.204Z" fill="#E9F2FF"/>
<path d="M214.749 102.766H168.051C167.237 102.766 166.576 103.432 166.576 104.252V129.307C166.576 130.128 167.237 130.794 168.051 130.794H214.749C215.564 130.794 216.224 130.128 216.224 129.307V104.252C216.224 103.432 215.564 102.766 214.749 102.766Z" fill="#D4E8FF"/>
<path d="M197.574 108.372H170.379C169.56 108.372 168.896 109.051 168.896 109.889V126.941C168.896 127.779 169.56 128.458 170.379 128.458H197.574C198.393 128.458 199.056 127.779 199.056 126.941V109.889C199.056 109.051 198.393 108.372 197.574 108.372Z" fill="#E9F2FF"/>
<path d="M211.59 108.372H202.76C201.995 108.372 201.375 109.023 201.375 109.826V110.188C201.375 110.991 201.995 111.642 202.76 111.642H211.59C212.355 111.642 212.975 110.991 212.975 110.188V109.826C212.975 109.023 212.355 108.372 211.59 108.372Z" fill="#E9F2FF"/>
<path d="M211.527 113.51H202.823C202.024 113.51 201.375 114.186 201.375 115.019V126.95C201.375 127.783 202.024 128.458 202.823 128.458H211.527C212.326 128.458 212.975 127.783 212.975 126.95V115.019C212.975 114.186 212.326 113.51 211.527 113.51Z" fill="#E9F2FF"/>
<path d="M207.639 106.036C208.024 106.036 208.335 105.722 208.335 105.336C208.335 104.949 208.024 104.635 207.639 104.635C207.255 104.635 206.943 104.949 206.943 105.336C206.943 105.722 207.255 106.036 207.639 106.036Z" fill="#E9F2FF"/>
<path d="M209.96 106.036C210.344 106.036 210.656 105.722 210.656 105.336C210.656 104.949 210.344 104.635 209.96 104.635C209.575 104.635 209.264 104.949 209.264 105.336C209.264 105.722 209.575 106.036 209.96 106.036Z" fill="#E9F2FF"/>
<path d="M212.28 106.036C212.664 106.036 212.976 105.722 212.976 105.336C212.976 104.949 212.664 104.635 212.28 104.635C211.896 104.635 211.584 104.949 211.584 105.336C211.584 105.722 211.896 106.036 212.28 106.036Z" fill="#E9F2FF"/>
<path d="M184.209 120.05C186.003 120.05 187.457 118.586 187.457 116.78C187.457 114.974 186.003 113.51 184.209 113.51C182.415 113.51 180.961 114.974 180.961 116.78C180.961 118.586 182.415 120.05 184.209 120.05Z" fill="#D4E8FF"/>
<path d="M183.392 120.517H184.559C185.943 120.517 187.27 121.095 188.248 122.124C189.226 123.154 189.776 124.55 189.776 126.006V128.458H178.176V126.006C178.176 124.55 178.725 123.154 179.704 122.124C180.682 121.095 182.009 120.517 183.392 120.517Z" fill="#D4E8FF"/>
<path d="M196.271 110.007C196.271 110.145 196.312 110.281 196.389 110.396C196.465 110.511 196.574 110.601 196.701 110.654C196.828 110.707 196.968 110.721 197.103 110.694C197.238 110.667 197.362 110.6 197.46 110.502C197.557 110.404 197.623 110.279 197.65 110.143C197.677 110.008 197.663 109.867 197.61 109.739C197.558 109.611 197.469 109.501 197.354 109.424C197.24 109.347 197.105 109.306 196.967 109.306C196.876 109.306 196.786 109.324 196.701 109.359C196.617 109.395 196.54 109.446 196.475 109.511C196.411 109.576 196.359 109.654 196.324 109.739C196.289 109.824 196.271 109.915 196.271 110.007Z" fill="#D4E8FF"/>
<path d="M72.8475 50.9161C80.0228 50.9161 85.8395 45.0602 85.8395 37.8367C85.8395 30.6132 80.0228 24.7573 72.8475 24.7573C65.6722 24.7573 59.8555 30.6132 59.8555 37.8367C59.8555 45.0602 65.6722 50.9161 72.8475 50.9161Z" fill="#D4E8FF"/>
<path d="M81.5695 38.771H72.9423C72.808 38.771 72.6751 38.7445 72.551 38.6932C72.427 38.6419 72.3143 38.5667 72.2193 38.4719C72.1244 38.3771 72.0491 38.2646 71.9977 38.1407C71.9463 38.0168 71.9199 37.8841 71.9199 37.75V31.3751C71.9222 31.1058 72.0309 30.8484 72.2224 30.6588C72.4139 30.4692 72.6726 30.3628 72.9423 30.3628C73.212 30.3628 73.4707 30.4692 73.6622 30.6588C73.8537 30.8484 73.9624 31.1058 73.9647 31.3751V36.7291H81.5695C81.8407 36.7291 82.1007 36.8366 82.2925 37.0281C82.4842 37.2196 82.5919 37.4793 82.5919 37.75C82.5919 38.0208 82.4842 38.2805 82.2925 38.4719C82.1007 38.6634 81.8407 38.771 81.5695 38.771Z" fill="#E9F2FF"/>
<path d="M164.642 21.4875H128.608C127.795 21.4875 127.137 22.1591 127.137 22.9875V40.0737C127.137 40.9022 127.795 41.5737 128.608 41.5737H164.642C165.454 41.5737 166.113 40.9022 166.113 40.0737V22.9875C166.113 22.1591 165.454 21.4875 164.642 21.4875Z" fill="#D4E8FF"/>
<path d="M164.256 27.1171V35.9439C163.27 35.9441 162.325 36.3404 161.628 37.0458C160.931 37.7511 160.54 38.7077 160.539 39.7052H132.709C132.709 38.7077 132.317 37.7511 131.62 37.0458C130.923 36.3404 129.978 35.9441 128.992 35.9439V27.1171C129.978 27.117 130.923 26.7206 131.62 26.0153C132.317 25.31 132.709 24.3534 132.709 23.356H160.539C160.54 24.3534 160.931 25.31 161.628 26.0153C162.325 26.7206 163.27 27.117 164.256 27.1171Z" fill="#E9F2FF"/>
<path d="M151.5 33.5766C152.595 30.9169 151.341 27.8669 148.699 26.7644C146.057 25.6619 143.027 26.9244 141.932 29.5842C140.837 32.244 142.091 35.2939 144.733 36.3964C147.375 37.4989 150.405 36.2364 151.5 33.5766Z" fill="#D4E8FF"/>
<path d="M146.242 28.4885V28.0272H147.006V28.4885C147.668 28.6304 148.008 29.1625 148.008 30.0051V30.2002H147.125V29.943C147.125 29.4996 146.955 29.331 146.658 29.331C146.361 29.331 146.192 29.4992 146.192 29.943C146.192 31.2202 148.016 31.2823 148.016 33.0562C148.016 33.8988 147.668 34.4397 147.006 34.5817V35.034H146.242V34.5817C145.572 34.4397 145.232 33.8988 145.232 33.0562V32.6306H146.115V33.1184C146.115 33.5618 146.302 33.7215 146.599 33.7215C146.896 33.7215 147.083 33.5618 147.083 33.1184C147.083 31.8412 145.258 31.7791 145.258 30.0053C145.258 29.1714 145.589 28.6392 146.242 28.4885Z" fill="#E9F2FF"/>
<path d="M18.0954 105.569C19.3079 105.569 20.4695 104.602 20.4134 103.467C20.3572 102.328 19.3949 101.365 18.0954 101.365C16.8828 101.365 15.7212 102.332 15.7773 103.467C15.8336 104.606 16.7958 105.569 18.0954 105.569Z" fill="#D4E8FF"/>
<path d="M53.8239 91.0884C55.0365 91.0884 56.1981 90.0142 56.142 88.7529C56.0857 87.4874 55.1234 86.4172 53.8239 86.4172C52.6114 86.4172 51.4498 87.4915 51.5059 88.7529C51.5621 90.0182 52.5244 91.0884 53.8239 91.0884Z" fill="#D4E8FF"/>
<path d="M39.4391 45.3105C40.6517 45.3105 41.8133 44.3437 41.7572 43.2085C41.7009 42.0696 40.7387 41.1064 39.4391 41.1064C38.2266 41.1064 37.065 42.0733 37.1211 43.2085C37.1773 44.3474 38.1396 45.3105 39.4391 45.3105Z" fill="#D4E8FF"/>
<path d="M127.599 14.0135C128.812 14.0135 129.973 13.0467 129.917 11.9115C129.861 10.7726 128.899 9.80945 127.599 9.80945C126.387 9.80945 125.225 10.7763 125.281 11.9115C125.338 13.0504 126.3 14.0135 127.599 14.0135Z" fill="#D4E8FF"/>
<path d="M208.568 89.6871C209.66 89.6871 210.705 88.7202 210.655 87.585C210.604 86.4461 209.738 85.483 208.568 85.483C207.477 85.483 206.432 86.4499 206.482 87.585C206.533 88.7239 207.399 89.6871 208.568 89.6871Z" fill="#D4E8FF"/>
<path d="M178.175 147.143C179.388 147.143 180.55 146.176 180.494 145.041C180.437 143.902 179.475 142.939 178.175 142.939C176.963 142.939 175.801 143.906 175.857 145.041C175.914 146.18 176.876 147.143 178.175 147.143Z" fill="#D4E8FF"/>
<path d="M21.5768 87.8186C22.5041 87.8186 22.5056 86.8843 21.5768 86.8843C20.6496 86.8843 20.6481 87.8186 21.5768 87.8186Z" fill="#D4E8FF"/>
<path d="M45.4729 53.7188C46.7093 53.7188 46.7113 51.8503 45.4729 51.8503C44.2366 51.8503 44.2345 53.7188 45.4729 53.7188Z" fill="#D4E8FF"/>
<path d="M67.5124 62.594C68.4396 62.594 68.4411 61.1927 67.5124 61.1927C66.5851 61.1927 66.5836 62.594 67.5124 62.594Z" fill="#D4E8FF"/>
<path d="M85.6081 20.086C86.5353 20.086 86.5369 18.2175 85.6081 18.2175C84.6809 18.2175 84.6793 20.086 85.6081 20.086Z" fill="#D4E8FF"/>
<path d="M140.825 16.3492C141.752 16.3492 141.754 14.9479 140.825 14.9479C139.898 14.9479 139.896 16.3492 140.825 16.3492Z" fill="#D4E8FF"/>
<path d="M159.848 46.2449C160.776 46.2449 160.777 44.3764 159.848 44.3764C158.921 44.3764 158.92 46.2449 159.848 46.2449Z" fill="#D4E8FF"/>
<path d="M187.223 96.2267C188.151 96.2267 188.152 94.8254 187.223 94.8254C186.296 94.8254 186.295 96.2267 187.223 96.2267Z" fill="#D4E8FF"/>
<path d="M200.216 136.399C201.143 136.399 201.144 135.465 200.216 135.465C199.288 135.465 199.287 136.399 200.216 136.399Z" fill="#D4E8FF"/>
<path d="M42.6886 98.5622C43.3068 98.5622 43.3078 97.1609 42.6886 97.1609C42.0705 97.1609 42.0694 98.5622 42.6886 98.5622Z" fill="#D4E8FF"/>
<path d="M22.9675 124.721C23.8947 124.721 23.8962 123.32 22.9675 123.32C22.0403 123.32 22.0387 124.721 22.9675 124.721Z" fill="#D4E8FF"/>
<path d="M222.487 134.531C223.414 134.531 223.416 133.129 222.487 133.129C221.56 133.129 221.558 134.531 222.487 134.531Z" fill="#D4E8FF"/>
<path d="M171.448 91.0883C172.375 91.0883 172.377 89.687 171.448 89.687C170.521 89.687 170.519 91.0883 171.448 91.0883Z" fill="#D4E8FF"/>
<path d="M183.975 40.6394C184.903 40.6394 184.904 39.238 183.975 39.238C183.048 39.238 183.047 40.6394 183.975 40.6394Z" fill="#D4E8FF"/>
<path d="M105.327 23.8231C105.945 23.8231 105.946 22.4218 105.327 22.4218C104.709 22.4218 104.708 23.8231 105.327 23.8231Z" fill="#D4E8FF"/>
<path d="M29.0007 103.701C29.9279 103.701 29.9295 102.299 29.0007 102.299C28.0735 102.299 28.0719 103.701 29.0007 103.701Z" fill="#D4E8FF"/>
<path d="M61.944 82.2131C62.8713 82.2131 62.8728 80.8118 61.944 80.8118C61.0168 80.8118 61.0153 82.2131 61.944 82.2131Z" fill="#D4E8FF"/>
<path d="M61.0163 137.8C61.9435 137.8 61.9451 135.932 61.0163 135.932C60.0891 135.932 60.0875 137.8 61.0163 137.8Z" fill="#D4E8FF"/>
<path d="M171.215 137.8C172.451 137.8 172.453 135.932 171.215 135.932C169.979 135.932 169.977 137.8 171.215 137.8Z" fill="#D4E8FF"/>
<path d="M160.544 72.4468V201.329H71.9199V72.4468L99.2572 42.7637L116.232 25.2244L160.544 72.4468Z" fill="white"/>
<path d="M161.008 72.3592V78.009H160.509L160.079 77.5411L134.278 49.4614L116 29.5684L97.7222 49.4614L71.9213 77.5411L71.4911 78.009H70.9922V72.3624L98.6041 42.3119L116.006 24.2902L161.008 72.3592Z" fill="#90C0FE"/>
<path d="M161.008 85.0159H70.9922V89.6871H161.008V85.0159Z" fill="#90C0FE"/>
<path d="M161.008 137.333H70.9922V142.005H161.008V137.333Z" fill="#90C0FE"/>
<path d="M116.006 24.2902L98.604 42.2036L70.9922 72.0734V201.796H161.008V72.0706L116.006 24.2902ZM160.079 200.864H71.9215V72.4388L99.2742 42.8494L115.995 25.6359L160.079 72.4416V200.864Z" fill="#383838"/>
<path d="M108.576 203.197V147.61H78.4162V203.197H108.576Z" fill="white"/>
<path d="M108.575 203.664H77.9512V147.143H108.575V203.664ZM78.8734 202.735H107.653V148.072H78.8734V202.735Z" fill="#383838"/>
<path d="M164.719 201.329H67.2793V205.533H164.719V201.329Z" fill="white"/>
<path d="M165.184 206H66.8164V200.862H165.184V206ZM67.7434 205.051H164.257V201.811H67.7434V205.051Z" fill="#383838"/>
<path d="M162.865 134.998H69.1367V139.669H162.865V134.998Z" fill="white"/>
<path d="M163.328 140.136H68.6719V134.063H163.328V140.136ZM69.5959 139.153H162.404V135.046H69.5959V139.153Z" fill="#383838"/>
<path d="M106.255 149.478H80.2715V201.329H106.255V149.478Z" fill="#2879E4"/>
<path opacity="0.3" d="M106.255 149.478H80.2715V201.329H106.255V149.478Z" fill="black"/>
<path d="M106.255 150.413H81.1992V201.329H106.255V150.413Z" fill="#32C1FF"/>
<path d="M106.721 201.796H79.8086V149.011H106.721V201.796ZM80.7301 200.866H105.799V149.941H80.7301V200.866Z" fill="#383838"/>
<path d="M162.865 82.2131H69.1367V87.3514H162.865V82.2131Z" fill="white"/>
<path d="M163.328 87.3514H68.6719V81.746H163.328V87.3514ZM69.5959 86.4443H162.404V82.6532H69.5959V86.4443Z" fill="#383838"/>
<path d="M200.446 187.949C199.777 187.949 199.117 188.093 198.509 188.371C197.901 188.649 197.361 189.055 196.925 189.56C196.489 190.065 196.168 190.658 195.984 191.298C195.8 191.938 195.756 192.61 195.857 193.269L192.197 194.168V187.421C197.14 187.126 201.071 183.03 201.071 178.036C201.072 176.699 200.785 175.377 200.232 174.159C199.678 172.941 198.87 171.854 197.861 170.971C196.853 170.089 195.666 169.43 194.382 169.04C193.097 168.65 191.744 168.536 190.412 168.708C189.08 168.88 187.8 169.332 186.658 170.035C185.515 170.738 184.537 171.675 183.787 172.784C183.037 173.894 182.533 175.149 182.309 176.468C182.086 177.786 182.147 179.137 182.489 180.43C181.201 179.857 179.776 179.665 178.382 179.877C176.988 180.089 175.685 180.695 174.628 181.625C173.571 182.554 172.805 183.766 172.421 185.117C172.038 186.468 172.053 187.9 172.465 189.243C172.877 190.585 173.668 191.781 174.745 192.688C175.821 193.595 177.137 194.174 178.535 194.357C179.933 194.54 181.354 194.318 182.629 193.718C183.904 193.118 184.979 192.166 185.725 190.975L191.052 193.626V205.533H192.197V195.343L196.169 194.366C196.495 195.136 197.025 195.804 197.702 196.298C198.379 196.791 199.178 197.093 200.014 197.171C200.85 197.249 201.691 197.1 202.448 196.74C203.206 196.379 203.851 195.821 204.315 195.125C204.779 194.429 205.044 193.62 205.083 192.785C205.123 191.951 204.934 191.121 204.537 190.385C204.14 189.649 203.55 189.033 202.83 188.604C202.109 188.175 201.286 187.949 200.446 187.949ZM186.841 187.106C186.84 186.769 186.817 186.433 186.77 186.1C188.069 186.879 189.538 187.332 191.052 187.422V192.352L186.256 189.965C186.643 189.061 186.842 188.088 186.841 187.106H186.841Z" fill="#D4E8FF"/>
<path d="M27.8398 192.57C27.84 193.637 28.2054 194.67 28.8741 195.496C29.5428 196.321 30.4737 196.888 31.5089 197.099C32.5441 197.311 33.6198 197.154 34.5537 196.656C35.4875 196.158 36.222 195.349 36.6325 194.366L40.5483 195.342V205.533H41.6772V193.627L46.929 190.975C47.6643 192.167 48.7238 193.12 49.9808 193.72C51.2379 194.32 52.6395 194.542 54.0182 194.359C55.3969 194.177 56.6944 193.597 57.7558 192.69C58.8172 191.783 59.5976 190.587 60.0038 189.244C60.4101 187.901 60.4249 186.468 60.0467 185.117C59.6685 183.766 58.9131 182.553 57.8708 181.624C56.8284 180.694 55.5433 180.088 54.1687 179.876C52.7941 179.664 51.3882 179.856 50.1189 180.43C50.4561 179.137 50.5163 177.786 50.2957 176.468C50.0751 175.149 49.5786 173.894 48.8394 172.784C48.1002 171.675 47.1354 170.738 46.0091 170.035C44.8828 169.332 43.6211 168.88 42.3081 168.708C40.995 168.536 39.6608 168.65 38.3945 169.04C37.1282 169.43 35.9588 170.089 34.9644 170.971C33.9699 171.854 33.1733 172.941 32.6277 174.159C32.082 175.377 31.7998 176.699 31.7999 178.036C31.7999 183.03 35.6752 187.126 40.5483 187.422V194.169L36.9401 193.269C37.0354 192.64 37.001 191.997 36.839 191.382C36.6771 190.767 36.3911 190.193 35.999 189.694C35.6068 189.196 35.117 188.785 34.5602 188.487C34.0034 188.189 33.3916 188.01 32.7632 187.962C32.1348 187.914 31.5033 187.997 30.9083 188.207C30.3132 188.416 29.7675 188.748 29.3053 189.181C28.8431 189.613 28.4743 190.138 28.2222 190.721C27.97 191.304 27.8398 191.934 27.8398 192.57ZM46.4053 189.965L41.6772 192.352V187.422C43.1694 187.332 44.6179 186.879 45.8987 186.1C45.7161 187.411 45.8913 188.747 46.4053 189.965V189.965Z" fill="#D4E8FF"/>
<path d="M150.336 180.775V147.61H127.136V180.775H150.336Z" fill="white"/>
<path d="M150.8 181.243H126.672V147.143H150.8V181.243ZM127.588 180.312H149.883V148.073H127.588V180.312Z" fill="#383838"/>
<path d="M148.48 149.478H128.992V178.907H148.48V149.478Z" fill="#2879E4"/>
<path opacity="0.3" d="M148.48 149.478H128.992V178.907H148.48V149.478Z" fill="black"/>
<path d="M148.48 150.413H129.92V178.907H148.48V150.413Z" fill="#32C1FF"/>
<path d="M148.943 173.075V177.973L128.527 157.179V152.281L148.943 173.075Z" fill="white"/>
<path d="M148.943 167.1V170.032L128.527 149.133V149.011H131.273L148.943 167.1Z" fill="white"/>
<path d="M142.447 179.374H140.197L128.527 167.625V165.361L129.444 166.284L141.53 178.451L142.447 179.374Z" fill="white"/>
<path d="M153.584 182.177H124.352V184.512H153.584V182.177Z" fill="#90C0FE"/>
<path d="M153.584 127.057H78.416V128.925H153.584V127.057Z" fill="#90C0FE"/>
<path d="M128.527 149.011V179.374H148.943V149.011H128.527ZM148.029 178.444H129.442V149.941H148.029L148.029 178.444Z" fill="#383838"/>
<path d="M152.656 178.907H124.816V183.111H152.656V178.907Z" fill="white"/>
<path d="M153.584 183.578H124.352V178.44H153.584V183.578ZM125.28 182.635H152.655V179.383H125.28V182.635Z" fill="#383838"/>
<path d="M96.0478 96.2267H82.5918V109.773H96.0478V96.2267Z" fill="#2879E4"/>
<path d="M109.505 96.2267H96.0488V109.773H109.505V96.2267Z" fill="#2879E4"/>
<path d="M122.496 96.2267H109.504V109.773H122.496V96.2267Z" fill="#2879E4"/>
<path d="M135.952 96.2267H122.496V109.773H135.952V96.2267Z" fill="#2879E4"/>
<path d="M149.407 96.2267H135.951V109.773H149.407V96.2267Z" fill="#2879E4"/>
<path d="M96.0478 109.773H82.5918V123.32H96.0478V109.773Z" fill="#2879E4"/>
<path d="M109.505 109.773H96.0488V123.32H109.505V109.773Z" fill="#2879E4"/>
<path d="M122.496 109.773H109.504V123.32H122.496V109.773Z" fill="#2879E4"/>
<path d="M135.952 109.773H122.496V123.32H135.952V109.773Z" fill="#2879E4"/>
<path d="M149.407 109.773H135.951V123.32H149.407V109.773Z" fill="#2879E4"/>
<path opacity="0.4" d="M149.408 96.2267H82.5918V123.32H149.408V96.2267Z" fill="black"/>
<path d="M149.408 97.628H83.5195V123.32H149.408V97.628Z" fill="#32C1FF"/>
<path d="M142.448 123.32H135.045L108.576 96.2267H115.979L142.448 123.32Z" fill="white"/>
<path d="M148.015 123.32H144.454L117.855 96.2267H121.417L148.015 123.32Z" fill="white"/>
<path d="M128.993 123.32H125.87L99.2969 96.2267H102.419L128.993 123.32Z" fill="white"/>
<path d="M96.0472 110.24H82.5946C82.4711 110.24 82.3526 110.191 82.2653 110.103C82.178 110.015 82.1289 109.896 82.1289 109.772V96.2283C82.1289 96.104 82.178 95.9848 82.2653 95.8969C82.3527 95.809 82.4711 95.7596 82.5946 95.7596H96.0472C96.1707 95.7596 96.2892 95.809 96.3765 95.8969C96.4638 95.9848 96.5129 96.104 96.5129 96.2283V109.772C96.5129 109.896 96.4638 110.015 96.3765 110.103C96.2892 110.191 96.1707 110.24 96.0472 110.24ZM83.0601 109.303H95.5817V96.6971H83.0601V109.303Z" fill="#383838"/>
<path d="M109.502 110.24H96.0496C95.9261 110.24 95.8077 110.191 95.7203 110.103C95.633 110.015 95.584 109.896 95.584 109.772V96.2283C95.584 96.104 95.6331 95.9848 95.7204 95.8969C95.8077 95.809 95.9261 95.7596 96.0496 95.7596H109.502C109.626 95.7596 109.744 95.809 109.832 95.8969C109.919 95.9848 109.968 96.104 109.968 96.2283V109.772C109.968 109.896 109.919 110.015 109.832 110.103C109.744 110.191 109.626 110.24 109.502 110.24ZM96.5152 109.303H109.037V96.6971H96.5152V109.303Z" fill="#383838"/>
<path d="M122.943 110.24H109.057C108.929 110.24 108.807 110.191 108.717 110.103C108.627 110.015 108.576 109.896 108.576 109.772V96.2283C108.576 96.104 108.627 95.9848 108.717 95.8969C108.807 95.809 108.929 95.7596 109.057 95.7596H122.943C123.071 95.7596 123.193 95.809 123.283 95.8969C123.373 95.9848 123.424 96.104 123.424 96.2283V109.772C123.424 109.896 123.374 110.015 123.283 110.103C123.193 110.191 123.071 110.24 122.943 110.24ZM109.538 109.303H122.463V96.6971H109.538V109.303Z" fill="#383838"/>
<path d="M135.95 110.24H122.497C122.436 110.24 122.375 110.228 122.319 110.205C122.262 110.181 122.211 110.147 122.168 110.103C122.124 110.059 122.09 110.008 122.067 109.951C122.043 109.894 122.031 109.833 122.031 109.772V96.2283C122.031 96.1667 122.043 96.1058 122.067 96.0489C122.09 95.9921 122.124 95.9404 122.168 95.8969C122.211 95.8533 122.262 95.8188 122.319 95.7953C122.375 95.7717 122.436 95.7596 122.497 95.7596H135.95C136.011 95.7596 136.071 95.7717 136.128 95.7952C136.184 95.8188 136.236 95.8533 136.279 95.8968C136.322 95.9404 136.356 95.992 136.38 96.0489C136.403 96.1058 136.415 96.1667 136.415 96.2283V109.772C136.415 109.896 136.366 110.015 136.279 110.103C136.192 110.191 136.073 110.24 135.95 110.24ZM122.962 109.303H135.484V96.6971H122.962V109.303Z" fill="#383838"/>
<path d="M149.407 110.24H135.954C135.893 110.24 135.832 110.228 135.776 110.205C135.719 110.181 135.668 110.147 135.625 110.103C135.581 110.059 135.547 110.008 135.524 109.951C135.5 109.894 135.488 109.833 135.488 109.772V96.2283C135.488 96.1667 135.5 96.1058 135.524 96.0489C135.547 95.9921 135.581 95.9404 135.625 95.8969C135.668 95.8533 135.719 95.8188 135.776 95.7953C135.832 95.7717 135.893 95.7596 135.954 95.7596H149.407C149.468 95.7596 149.528 95.7717 149.585 95.7953C149.641 95.8188 149.693 95.8533 149.736 95.8969C149.779 95.9404 149.813 95.9921 149.837 96.0489C149.86 96.1058 149.872 96.1667 149.872 96.2283V109.772C149.872 109.833 149.86 109.894 149.837 109.951C149.813 110.008 149.779 110.059 149.736 110.103C149.693 110.147 149.641 110.181 149.585 110.205C149.528 110.228 149.468 110.24 149.407 110.24ZM136.42 109.303H148.941V96.6971H136.42V109.303Z" fill="#383838"/>
<path d="M96.0472 123.787H82.5946C82.4711 123.787 82.3527 123.737 82.2653 123.65C82.178 123.562 82.1289 123.442 82.1289 123.318V109.775C82.1289 109.651 82.178 109.531 82.2653 109.443C82.3526 109.355 82.4711 109.306 82.5946 109.306H96.0472C96.1707 109.306 96.2892 109.355 96.3765 109.443C96.4638 109.531 96.5129 109.651 96.5129 109.775V123.318C96.5129 123.442 96.4638 123.562 96.3765 123.65C96.2892 123.737 96.1707 123.787 96.0472 123.787ZM83.0601 122.849H95.5817V110.244H83.0601V122.849Z" fill="#383838"/>
<path d="M109.502 123.787H96.0496C95.9261 123.787 95.8077 123.737 95.7204 123.65C95.6331 123.562 95.584 123.442 95.584 123.318V109.775C95.584 109.651 95.633 109.531 95.7203 109.443C95.8077 109.356 95.9261 109.306 96.0496 109.306H109.502C109.626 109.306 109.744 109.355 109.832 109.443C109.919 109.531 109.968 109.651 109.968 109.775V123.318C109.968 123.442 109.919 123.562 109.832 123.65C109.744 123.737 109.626 123.787 109.502 123.787ZM96.5152 122.849H109.037V110.244H96.5152V122.849Z" fill="#383838"/>
<path d="M122.943 123.787H109.057C108.929 123.787 108.807 123.737 108.717 123.65C108.627 123.562 108.576 123.442 108.576 123.318V109.775C108.576 109.651 108.627 109.531 108.717 109.443C108.807 109.355 108.929 109.306 109.057 109.306H122.943C123.071 109.306 123.193 109.355 123.283 109.443C123.374 109.531 123.424 109.651 123.424 109.775V123.318C123.424 123.442 123.373 123.562 123.283 123.65C123.193 123.737 123.071 123.787 122.943 123.787ZM109.538 122.849H122.463V110.244H109.538V122.849Z" fill="#383838"/>
<path d="M135.95 123.787H122.497C122.373 123.787 122.255 123.737 122.168 123.65C122.08 123.562 122.031 123.442 122.031 123.318V109.775C122.031 109.713 122.043 109.652 122.067 109.595C122.09 109.539 122.124 109.487 122.168 109.443C122.211 109.4 122.262 109.365 122.319 109.342C122.375 109.318 122.436 109.306 122.497 109.306H135.95C136.073 109.306 136.192 109.355 136.279 109.443C136.366 109.531 136.415 109.651 136.415 109.775V123.318C136.415 123.38 136.403 123.441 136.38 123.497C136.356 123.554 136.322 123.606 136.279 123.65C136.236 123.693 136.184 123.728 136.128 123.751C136.071 123.775 136.011 123.787 135.95 123.787ZM122.962 122.849H135.484V110.244H122.962V122.849Z" fill="#383838"/>
<path d="M149.407 123.787H135.954C135.893 123.787 135.832 123.775 135.776 123.751C135.719 123.728 135.668 123.693 135.625 123.65C135.581 123.606 135.547 123.554 135.524 123.497C135.5 123.441 135.488 123.38 135.488 123.318V109.775C135.488 109.713 135.5 109.652 135.524 109.595C135.547 109.539 135.581 109.487 135.625 109.443C135.668 109.4 135.719 109.365 135.776 109.342C135.832 109.318 135.893 109.306 135.954 109.306H149.407C149.468 109.306 149.528 109.318 149.585 109.342C149.641 109.365 149.693 109.4 149.736 109.443C149.779 109.487 149.813 109.539 149.837 109.595C149.86 109.652 149.872 109.713 149.872 109.775V123.318C149.872 123.442 149.823 123.562 149.736 123.65C149.649 123.737 149.53 123.787 149.407 123.787ZM136.42 122.849H148.941V110.244H136.42V122.849Z" fill="#383838"/>
<path d="M166.111 75.2063H160.244L134.169 46.9679L115.999 27.2902L97.8287 46.9679L71.7534 75.2063H65.8867L94.6739 44.0313L114.421 22.6455C114.623 22.4276 114.867 22.2537 115.138 22.1348C115.41 22.016 115.703 21.9546 115.999 21.9546C116.295 21.9546 116.588 22.016 116.859 22.1348C117.131 22.2537 117.375 22.4276 117.576 22.6455L137.324 44.0313L166.111 75.2063Z" fill="white"/>
<path d="M167.039 75.6735H159.931L159.794 75.5251L133.785 47.2829L115.999 27.9694L98.2126 47.2829L72.0671 75.6735H64.959L114.088 22.3268C114.332 22.0621 114.628 21.8509 114.956 21.7065C115.285 21.5621 115.64 21.4875 115.999 21.4875C116.358 21.4875 116.713 21.5621 117.041 21.7065C117.37 21.8509 117.666 22.0621 117.91 22.3268L137.607 43.7154L167.039 75.6735ZM160.333 74.746H164.928L136.932 44.3459L117.234 22.9573C117.077 22.7861 116.885 22.6495 116.673 22.5561C116.46 22.4628 116.231 22.4146 115.999 22.4146C115.767 22.4147 115.537 22.4629 115.325 22.5563C115.112 22.6498 114.921 22.7864 114.763 22.9576L95.066 44.3459L67.0693 74.746H71.6647L97.5372 46.6524L115.999 26.6052L160.333 74.746Z" fill="#383838"/>
<path d="M116 68.6666C120.869 68.6666 124.816 64.7976 124.816 60.0249C124.816 55.2522 120.869 51.3832 116 51.3832C111.131 51.3832 107.184 55.2522 107.184 60.0249C107.184 64.7976 111.131 68.6666 116 68.6666Z" fill="#2879E4"/>
<g opacity="0.3">
<path opacity="0.3" d="M124.698 59.8939C124.699 61.4202 124.303 62.9202 123.55 64.2449C123.356 64.5858 123.139 64.9129 122.9 65.2238C122.147 66.2136 121.192 67.0301 120.1 67.6186C119.008 68.207 117.804 68.5539 116.568 68.6359C115.332 68.718 114.093 68.5333 112.934 68.0943C111.775 67.6553 110.722 66.9721 109.846 66.0904C108.97 65.2087 108.292 64.1489 107.856 62.9818C107.42 61.8147 107.236 60.5673 107.318 59.3231C107.399 58.0789 107.744 56.8666 108.328 55.7672C108.913 54.6679 109.724 53.7069 110.707 52.9487C111.511 52.3263 112.417 51.8507 113.384 51.5433C114.687 51.1304 116.068 51.0321 117.416 51.2564C118.764 51.4807 120.04 52.0213 121.142 52.8344C122.243 53.6476 123.139 54.7104 123.757 55.9369C124.375 57.1634 124.697 58.5191 124.698 59.8943L124.698 59.8939Z" fill="black"/>
</g>
<path d="M123.074 67.0167C126.47 63.5975 126.47 58.0539 123.074 54.6347C119.678 51.2154 114.171 51.2154 110.775 54.6347C107.378 58.0539 107.378 63.5975 110.775 67.0167C114.171 70.4359 119.678 70.4359 123.074 67.0167Z" fill="#32C1FF"/>
<path d="M124.352 62.6961C124.167 63.3111 123.919 63.9033 123.612 64.4625L111.824 52.1571C112.359 51.8358 112.926 51.5763 113.515 51.3832L124.352 62.6961Z" fill="white"/>
<path d="M122.96 65.3388C122.236 66.3197 121.324 67.1345 120.283 67.7323L108.576 55.5666C109.152 54.4846 109.936 53.5375 110.879 52.7845L122.96 65.3388Z" fill="white"/>
<path d="M116.001 72.4035C109.093 72.4035 103.473 66.7458 103.473 59.7914C103.473 52.837 109.093 47.179 116.001 47.179C122.909 47.179 128.529 52.8368 128.529 59.7911C128.529 66.7454 122.909 72.4035 116.001 72.4035ZM116.001 47.273C109.144 47.273 103.566 52.8887 103.566 59.7914C103.566 66.694 109.144 72.3099 116.001 72.3099C122.857 72.3099 128.436 66.6941 128.436 59.7914C128.436 52.8887 122.857 47.273 116.001 47.273ZM116.001 68.658C114.259 68.658 112.556 68.138 111.107 67.1637C109.659 66.1894 108.53 64.8047 107.864 63.1845C107.197 61.5644 107.023 59.7816 107.362 58.0616C107.702 56.3417 108.541 54.7618 109.773 53.5218C111.005 52.2818 112.574 51.4374 114.282 51.0952C115.991 50.7531 117.762 50.9287 119.371 51.5998C120.98 52.2709 122.356 53.4073 123.324 54.8654C124.292 56.3235 124.808 58.0377 124.808 59.7914C124.805 62.1421 123.877 64.3959 122.226 66.0581C120.574 67.7204 118.336 68.6554 116.001 68.658ZM116.001 51.0185C114.277 51.0185 112.592 51.533 111.159 52.497C109.726 53.461 108.609 54.8311 107.949 56.4342C107.29 58.0372 107.117 59.8012 107.454 61.503C107.79 63.2048 108.62 64.768 109.839 65.9949C111.057 67.2218 112.61 68.0574 114.301 68.3959C115.991 68.7344 117.743 68.5606 119.336 67.8966C120.928 67.2326 122.289 66.1081 123.246 64.6654C124.204 63.2227 124.715 61.5265 124.715 59.7914C124.712 57.4654 123.793 55.2355 122.16 53.5909C120.526 51.9462 118.311 51.0211 116.001 51.0185Z" fill="#90C0FE"/>
<path d="M116.001 72.4035C109.093 72.4035 103.473 66.7457 103.473 59.7912C103.473 52.8368 109.093 47.179 116.001 47.179C122.909 47.179 128.529 52.8369 128.529 59.7912C128.529 66.7456 122.909 72.4035 116.001 72.4035ZM116.001 50.9385C114.261 50.9385 112.561 51.4577 111.115 52.4305C109.669 53.4032 108.542 54.7858 107.876 56.4035C107.211 58.0211 107.037 59.8011 107.376 61.5184C107.715 63.2357 108.553 64.8131 109.783 66.0512C111.012 67.2893 112.579 68.1324 114.285 68.474C115.991 68.8156 117.759 68.6403 119.366 67.9702C120.973 67.3001 122.346 66.1655 123.312 64.7096C124.279 63.2538 124.794 61.5421 124.794 59.7912C124.792 57.4441 123.864 55.1939 122.216 53.5343C120.567 51.8747 118.332 50.9411 116.001 50.9385Z" fill="white"/>
<path d="M116 72.8706C108.836 72.8706 103.008 67.0032 103.008 59.7911C103.008 52.579 108.836 46.7119 116 46.7119C123.164 46.7119 128.992 52.5794 128.992 59.7914C128.992 67.0034 123.164 72.8706 116 72.8706ZM116 47.6513C109.351 47.6513 103.941 53.0972 103.941 59.7911C103.941 66.485 109.351 71.931 116 71.931C122.649 71.931 128.058 66.4851 128.058 59.7911C128.058 53.0971 122.649 47.6513 116 47.6513ZM116 69.1119C114.169 69.1119 112.379 68.5652 110.856 67.5411C109.334 66.5169 108.147 65.0612 107.446 63.358C106.746 61.6549 106.562 59.7808 106.919 57.9728C107.277 56.1647 108.158 54.5039 109.453 53.2004C110.748 51.8969 112.398 51.0092 114.194 50.6495C115.99 50.2899 117.851 50.4744 119.543 51.1799C121.235 51.8854 122.681 53.08 123.698 54.6128C124.715 56.1456 125.258 57.9476 125.258 59.7911C125.255 62.2623 124.279 64.6315 122.543 66.3789C120.808 68.1263 118.454 69.1092 116 69.1119ZM116 51.41C114.353 51.41 112.744 51.9015 111.375 52.8225C110.006 53.7434 108.939 55.0524 108.308 56.5838C107.678 58.1153 107.513 59.8005 107.835 61.4263C108.156 63.0521 108.949 64.5454 110.113 65.7176C111.277 66.8897 112.761 67.6879 114.376 68.0113C115.991 68.3347 117.665 68.1687 119.186 67.5343C120.707 66.9 122.007 65.8257 122.922 64.4474C123.837 63.0692 124.325 61.4487 124.325 59.7911C124.322 57.569 123.444 55.4387 121.884 53.8675C120.323 52.2963 118.207 51.4125 116 51.41Z" fill="#383838"/>
<path d="M153.119 123.32H78.8789V127.524H153.119V123.32Z" fill="white"/>
<path d="M153.584 127.991H78.416V122.853H153.584V127.991ZM79.3385 127.068H152.661V123.776H79.3385V127.068Z" fill="#383838"/>
<path d="M148.48 163.492H128.992V164.893H148.48V163.492Z" fill="white"/>
<path d="M148.943 165.828H128.527V163.025H148.943V165.828ZM129.442 164.884H148.029V163.968H129.442V164.884Z" fill="#383838"/>
<path d="M115.999 69.1338C115.938 69.1338 115.878 69.1219 115.822 69.0988C115.765 69.0758 115.714 69.042 115.671 68.9993C115.628 68.9567 115.594 68.9061 115.57 68.8504C115.547 68.7947 115.535 68.735 115.535 68.6747V51.3753C115.535 51.2535 115.584 51.1367 115.671 51.0506C115.758 50.9645 115.876 50.9161 115.999 50.9161C116.122 50.9161 116.24 50.9645 116.327 51.0506C116.414 51.1367 116.463 51.2535 116.463 51.3753V68.6747C116.463 68.735 116.451 68.7947 116.428 68.8504C116.405 68.9061 116.37 68.9567 116.327 68.9993C116.284 69.042 116.233 69.0758 116.177 69.0988C116.12 69.1219 116.06 69.1338 115.999 69.1338Z" fill="#383838"/>
<path d="M124.813 60.2585H107.188C107.064 60.2585 106.945 60.2092 106.858 60.1216C106.77 60.034 106.721 59.9152 106.721 59.7913C106.721 59.6674 106.77 59.5486 106.858 59.461C106.945 59.3734 107.064 59.3242 107.188 59.3242H124.813C124.937 59.3242 125.056 59.3734 125.144 59.461C125.231 59.5486 125.281 59.6674 125.281 59.7913C125.281 59.9152 125.231 60.034 125.144 60.1216C125.056 60.2092 124.937 60.2585 124.813 60.2585Z" fill="#383838"/>
<path d="M96.6576 163.295C98.4593 161.481 98.4593 158.54 96.6576 156.727C94.856 154.913 91.9349 154.913 90.1333 156.727C88.3316 158.54 88.3316 161.481 90.1333 163.295C91.9349 165.109 94.856 165.109 96.6576 163.295Z" fill="#2879E4"/>
<g opacity="0.3">
<path opacity="0.3" d="M96.6576 163.295C98.4593 161.481 98.4593 158.541 96.6576 156.727C94.856 154.913 91.9349 154.913 90.1333 156.727C88.3316 158.541 88.3316 161.481 90.1333 163.295C91.9349 165.109 94.856 165.109 96.6576 163.295Z" fill="black"/>
</g>
<path d="M94.1908 165.361C96.7534 165.361 98.8308 163.374 98.8308 160.923C98.8308 158.472 96.7534 156.485 94.1908 156.485C91.6282 156.485 89.5508 158.472 89.5508 160.923C89.5508 163.374 91.6282 165.361 94.1908 165.361Z" fill="#2879E4"/>
<path d="M100.673 188.716H85.8534C85.7908 188.717 85.7288 188.706 85.6708 188.683C85.6128 188.66 85.56 188.625 85.5155 188.582C85.471 188.538 85.4356 188.487 85.4115 188.43C85.3874 188.372 85.375 188.311 85.375 188.249C85.375 188.188 85.3874 188.126 85.4115 188.069C85.4356 188.012 85.471 187.96 85.5155 187.917C85.56 187.874 85.6128 187.839 85.6708 187.816C85.7288 187.793 85.7908 187.782 85.8534 187.782H100.673C100.735 187.782 100.797 187.793 100.855 187.816C100.913 187.839 100.966 187.874 101.011 187.917C101.055 187.96 101.09 188.012 101.114 188.069C101.139 188.126 101.151 188.188 101.151 188.249C101.151 188.311 101.139 188.372 101.114 188.43C101.09 188.487 101.055 188.538 101.011 188.582C100.966 188.625 100.913 188.66 100.855 188.683C100.797 188.706 100.735 188.717 100.673 188.716Z" fill="#383838"/>
<path d="M89.6935 156.499L88.1465 158.056L96.4423 166.408L97.9894 164.851L89.6935 156.499Z" fill="white"/>
<path d="M90.545 155.207L89.8516 155.906L98.1462 164.256L98.8396 163.558L90.545 155.207Z" fill="white"/>
<path d="M93.2637 166.762C91.9789 166.762 90.7229 166.378 89.6546 165.66C88.5864 164.941 87.7538 163.92 87.2621 162.725C86.7704 161.53 86.6417 160.215 86.8924 158.946C87.143 157.678 87.7617 156.512 88.6702 155.598C89.5787 154.683 90.7362 154.06 91.9963 153.808C93.2564 153.556 94.5625 153.685 95.7495 154.18C96.9365 154.675 97.951 155.513 98.6648 156.589C99.3786 157.664 99.7596 158.929 99.7596 160.222C99.7576 161.956 99.0726 163.618 97.8548 164.844C96.637 166.07 94.9859 166.76 93.2637 166.762ZM93.2637 155.549C92.3456 155.549 91.4482 155.823 90.6849 156.337C89.9216 156.85 89.3267 157.58 88.9754 158.434C88.6241 159.288 88.5322 160.227 88.7113 161.134C88.8904 162.04 89.3324 162.873 89.9816 163.526C90.6307 164.18 91.4577 164.625 92.3581 164.805C93.2585 164.985 94.1918 164.893 95.0399 164.539C95.888 164.186 96.6129 163.587 97.123 162.818C97.633 162.05 97.9052 161.146 97.9052 160.222C97.9039 158.983 97.4144 157.796 96.5442 156.92C95.6741 156.043 94.4943 155.551 93.2637 155.549V155.549Z" fill="white"/>
<path d="M93.2647 166.762C91.8881 166.762 90.5425 166.365 89.3979 165.62C88.2533 164.876 87.3613 163.818 86.8345 162.581C86.3077 161.343 86.1699 159.981 86.4384 158.667C86.707 157.353 87.3699 156.146 88.3433 155.199C89.3166 154.252 90.5568 153.607 91.9069 153.345C93.257 153.084 94.6564 153.218 95.9282 153.731C97.2 154.244 98.287 155.112 99.0517 156.226C99.8165 157.339 100.225 158.649 100.225 159.989C100.223 161.784 99.4886 163.506 98.1838 164.776C96.879 166.046 95.1099 166.76 93.2647 166.762ZM93.2647 154.118C92.0715 154.118 90.9052 154.462 89.9131 155.107C88.921 155.752 88.1478 156.669 87.6911 157.742C87.2345 158.815 87.115 159.995 87.3478 161.134C87.5806 162.273 88.1551 163.319 88.9988 164.14C89.8425 164.961 90.9174 165.52 92.0876 165.747C93.2578 165.973 94.4708 165.857 95.5732 165.413C96.6755 164.968 97.6177 164.216 98.2806 163.25C98.9435 162.285 99.2973 161.15 99.2973 159.989C99.2956 158.432 98.6594 156.94 97.5285 155.839C96.3975 154.739 94.8641 154.119 93.2647 154.118V154.118ZM93.2647 164.957C92.2549 164.957 91.2678 164.666 90.4282 164.12C89.5886 163.574 88.9342 162.798 88.5478 161.89C88.1614 160.982 88.0603 159.983 88.2573 159.019C88.4543 158.056 88.9405 157.17 89.6545 156.475C90.3685 155.78 91.2782 155.307 92.2686 155.116C93.259 154.924 94.2855 155.022 95.2184 155.398C96.1513 155.774 96.9487 156.411 97.5097 157.228C98.0707 158.045 98.3701 159.006 98.3701 159.989C98.3685 161.306 97.8302 162.569 96.873 163.5C95.9159 164.432 94.6182 164.956 93.2647 164.957ZM93.2647 155.922C92.4383 155.922 91.6305 156.161 90.9435 156.608C90.2564 157.054 89.7209 157.689 89.4046 158.432C89.0884 159.175 89.0057 159.993 89.1669 160.782C89.3281 161.57 89.726 162.295 90.3103 162.864C90.8946 163.432 91.6391 163.819 92.4495 163.976C93.26 164.133 94.1001 164.053 94.8635 163.745C95.627 163.437 96.2795 162.916 96.7386 162.247C97.1977 161.579 97.4428 160.793 97.4428 159.989C97.4415 158.911 97.0009 157.877 96.2176 157.115C95.4344 156.353 94.3724 155.924 93.2647 155.923V155.922Z" fill="#383838"/>
<path d="M103.008 175.637C103.008 175.822 102.954 176.002 102.852 176.156C102.75 176.31 102.605 176.43 102.436 176.5C102.266 176.571 102.079 176.589 101.899 176.553C101.719 176.517 101.554 176.428 101.424 176.298C101.294 176.167 101.206 176.001 101.17 175.819C101.134 175.638 101.153 175.45 101.223 175.28C101.293 175.109 101.412 174.963 101.565 174.86C101.717 174.758 101.897 174.703 102.08 174.703C102.326 174.703 102.562 174.801 102.737 174.976C102.911 175.152 103.008 175.389 103.008 175.637Z" fill="#383838"/>
<path d="M184.672 198.059C186.466 198.059 187.92 196.595 187.92 194.789C187.92 192.983 186.466 191.519 184.672 191.519C182.878 191.519 181.424 192.983 181.424 194.789C181.424 196.595 182.878 198.059 184.672 198.059Z" fill="#90C0FE"/>
<path d="M184.673 198.526C183.939 198.526 183.221 198.307 182.611 197.896C182 197.485 181.524 196.902 181.243 196.219C180.963 195.536 180.889 194.785 181.032 194.06C181.176 193.335 181.529 192.669 182.048 192.146C182.567 191.624 183.229 191.268 183.949 191.124C184.669 190.98 185.415 191.054 186.093 191.336C186.772 191.619 187.351 192.098 187.759 192.713C188.167 193.327 188.385 194.05 188.385 194.789C188.384 195.78 187.992 196.73 187.296 197.43C186.601 198.131 185.657 198.525 184.673 198.526ZM184.673 191.974C184.12 191.974 183.579 192.139 183.119 192.448C182.659 192.758 182.301 193.197 182.089 193.712C181.878 194.226 181.822 194.792 181.93 195.338C182.038 195.884 182.305 196.386 182.696 196.78C183.087 197.173 183.585 197.441 184.127 197.55C184.67 197.659 185.232 197.603 185.743 197.39C186.254 197.177 186.691 196.816 186.998 196.353C187.305 195.89 187.469 195.346 187.469 194.789C187.469 194.043 187.174 193.327 186.649 192.799C186.125 192.271 185.414 191.975 184.673 191.974Z" fill="#383838"/>
<path d="M167.504 196.19C170.579 196.19 173.072 193.681 173.072 190.585C173.072 187.489 170.579 184.98 167.504 184.98C164.428 184.98 161.936 187.489 161.936 190.585C161.936 193.681 164.428 196.19 167.504 196.19Z" fill="#90C0FE"/>
<path d="M167.736 196.657C166.588 196.657 165.467 196.301 164.513 195.634C163.559 194.967 162.816 194.018 162.377 192.909C161.938 191.799 161.823 190.578 162.047 189.4C162.271 188.222 162.823 187.14 163.634 186.291C164.445 185.442 165.479 184.863 166.604 184.629C167.729 184.395 168.895 184.515 169.955 184.975C171.015 185.434 171.921 186.213 172.558 187.211C173.195 188.21 173.536 189.384 173.536 190.585C173.534 192.195 172.922 193.738 171.835 194.877C170.748 196.015 169.273 196.656 167.736 196.657ZM167.736 185.459C166.767 185.459 165.821 185.759 165.016 186.323C164.211 186.886 163.583 187.686 163.212 188.623C162.842 189.56 162.745 190.59 162.934 191.585C163.123 192.579 163.589 193.492 164.274 194.209C164.958 194.926 165.831 195.414 166.78 195.612C167.73 195.81 168.715 195.708 169.609 195.32C170.504 194.932 171.268 194.275 171.806 193.432C172.344 192.59 172.631 191.598 172.631 190.585C172.63 189.226 172.114 187.923 171.196 186.962C170.278 186.001 169.034 185.46 167.736 185.459Z" fill="#383838"/>
<path d="M177.712 188.716H177.248V205.533H177.712V188.716Z" fill="#383838"/>
<path d="M177.263 196.19C177.194 196.19 177.125 196.173 177.063 196.138L168.679 191.52C168.573 191.461 168.492 191.359 168.455 191.235C168.417 191.11 168.426 190.975 168.479 190.858C168.532 190.741 168.625 190.652 168.738 190.61C168.851 190.569 168.974 190.579 169.08 190.637L177.464 195.255C177.554 195.305 177.627 195.387 177.669 195.488C177.712 195.588 177.723 195.702 177.7 195.81C177.676 195.919 177.621 196.015 177.541 196.084C177.462 196.153 177.364 196.19 177.263 196.19Z" fill="#383838"/>
<path d="M177.688 197.592C177.58 197.592 177.476 197.547 177.396 197.467C177.316 197.387 177.264 197.277 177.251 197.157C177.238 197.037 177.265 196.916 177.326 196.817C177.387 196.718 177.478 196.647 177.582 196.618L184.123 194.804C184.179 194.788 184.238 194.785 184.295 194.794C184.353 194.804 184.408 194.826 184.458 194.859C184.508 194.893 184.551 194.937 184.586 194.99C184.62 195.042 184.645 195.102 184.659 195.165C184.673 195.228 184.676 195.294 184.667 195.358C184.658 195.423 184.638 195.485 184.608 195.541C184.578 195.596 184.538 195.645 184.491 195.683C184.444 195.721 184.391 195.749 184.334 195.764L177.793 197.577C177.759 197.587 177.723 197.592 177.688 197.592Z" fill="#383838"/>
<path d="M177.479 190.118C181.451 190.118 184.671 186.876 184.671 182.877C184.671 178.879 181.451 175.637 177.479 175.637C173.507 175.637 170.287 178.879 170.287 182.877C170.287 186.876 173.507 190.118 177.479 190.118Z" fill="#90C0FE"/>
<path d="M177.48 190.585C175.966 190.585 174.486 190.133 173.227 189.286C171.968 188.439 170.986 187.235 170.407 185.827C169.828 184.419 169.676 182.869 169.971 181.374C170.267 179.879 170.996 178.505 172.067 177.427C173.137 176.35 174.501 175.615 175.987 175.318C177.472 175.021 179.011 175.173 180.41 175.757C181.809 176.34 183.005 177.328 183.846 178.595C184.687 179.863 185.136 181.353 185.136 182.878C185.134 184.921 184.327 186.88 182.891 188.325C181.456 189.77 179.51 190.583 177.48 190.585ZM177.48 176.104C176.15 176.104 174.849 176.501 173.742 177.246C172.636 177.99 171.774 179.048 171.264 180.285C170.755 181.523 170.622 182.885 170.881 184.199C171.141 185.513 171.782 186.72 172.723 187.667C173.664 188.614 174.862 189.259 176.168 189.521C177.473 189.782 178.825 189.648 180.055 189.135C181.284 188.623 182.335 187.754 183.074 186.641C183.814 185.527 184.208 184.217 184.208 182.878C184.206 181.082 183.497 179.36 182.235 178.09C180.974 176.821 179.264 176.106 177.48 176.104Z" fill="#383838"/>
<path d="M47.3281 198.059C49.1219 198.059 50.5761 196.595 50.5761 194.789C50.5761 192.983 49.1219 191.519 47.3281 191.519C45.5343 191.519 44.0801 192.983 44.0801 194.789C44.0801 196.595 45.5343 198.059 47.3281 198.059Z" fill="#90C0FE"/>
<path d="M47.3291 198.526C46.5949 198.526 45.8773 198.307 45.2669 197.896C44.6564 197.485 44.1807 196.902 43.8997 196.219C43.6188 195.536 43.5453 194.785 43.6885 194.06C43.8318 193.335 44.1853 192.669 44.7044 192.147C45.2236 191.624 45.885 191.268 46.605 191.124C47.3251 190.98 48.0714 191.054 48.7497 191.336C49.428 191.619 50.0077 192.098 50.4156 192.713C50.8235 193.327 51.0412 194.05 51.0412 194.789C51.0401 195.78 50.6486 196.73 49.9527 197.43C49.2568 198.131 48.3133 198.525 47.3291 198.526ZM47.3291 191.974C46.776 191.974 46.2354 192.139 45.7755 192.448C45.3157 192.758 44.9573 193.197 44.7456 193.712C44.534 194.226 44.4786 194.792 44.5865 195.338C44.6944 195.884 44.9608 196.386 45.3518 196.78C45.7429 197.173 46.2412 197.441 46.7836 197.55C47.3261 197.659 47.8883 197.603 48.3993 197.39C48.9103 197.177 49.347 196.816 49.6543 196.353C49.9615 195.89 50.1256 195.346 50.1256 194.789C50.1247 194.043 49.8298 193.327 49.3056 192.799C48.7813 192.271 48.0705 191.975 47.3291 191.974Z" fill="#383838"/>
<path d="M64.4957 196.19C67.5709 196.19 70.0637 193.681 70.0637 190.585C70.0637 187.489 67.5709 184.98 64.4957 184.98C61.4206 184.98 58.9277 187.489 58.9277 190.585C58.9277 193.681 61.4206 196.19 64.4957 196.19Z" fill="#90C0FE"/>
<path d="M64.2648 196.657C63.1177 196.657 61.9963 196.301 61.0425 195.634C60.0887 194.967 59.3453 194.018 58.9063 192.909C58.4674 191.799 58.3525 190.578 58.5763 189.4C58.8001 188.222 59.3525 187.14 60.1636 186.291C60.9748 185.442 62.0082 184.863 63.1333 184.629C64.2584 184.395 65.4246 184.515 66.4844 184.975C67.5442 185.434 68.4501 186.213 69.0874 187.211C69.7247 188.21 70.0648 189.384 70.0648 190.585C70.0631 192.195 69.4515 193.738 68.3641 194.877C67.2768 196.015 65.8026 196.656 64.2648 196.657ZM64.2648 185.459C63.2965 185.459 62.35 185.759 61.5449 186.323C60.7398 186.886 60.1123 187.686 59.7417 188.623C59.3712 189.56 59.2742 190.59 59.4631 191.585C59.652 192.579 60.1183 193.492 60.803 194.209C61.4877 194.926 62.36 195.414 63.3097 195.612C64.2594 195.81 65.2438 195.708 66.1384 195.32C67.033 194.932 67.7976 194.275 68.3356 193.432C68.8735 192.59 69.1607 191.598 69.1607 190.585C69.1591 189.226 68.6429 187.923 67.725 186.962C66.8072 186.001 65.5628 185.46 64.2648 185.459Z" fill="#383838"/>
<path d="M54.7511 188.716H54.2871V205.533H54.7511V188.716Z" fill="#383838"/>
<path d="M54.7355 196.19C54.6345 196.19 54.5365 196.153 54.4573 196.084C54.3781 196.015 54.3224 195.919 54.2991 195.81C54.2759 195.702 54.2865 195.588 54.3293 195.488C54.3721 195.387 54.4445 195.305 54.5348 195.255L62.9186 190.637C63.0249 190.579 63.148 190.569 63.2607 190.61C63.3165 190.631 63.3681 190.663 63.4126 190.706C63.457 190.748 63.4935 190.8 63.5198 190.858C63.5461 190.916 63.5618 190.979 63.566 191.044C63.5702 191.108 63.5627 191.173 63.5441 191.235C63.5255 191.296 63.4961 191.353 63.4576 191.402C63.419 191.451 63.3721 191.491 63.3195 191.52L54.9355 196.138C54.8735 196.173 54.8049 196.19 54.7355 196.19Z" fill="#383838"/>
<path d="M54.3127 197.592C54.277 197.592 54.2414 197.587 54.2068 197.577L47.6612 195.763C47.5482 195.731 47.4511 195.65 47.3911 195.538C47.3311 195.426 47.313 195.292 47.341 195.165C47.3689 195.038 47.4405 194.929 47.5401 194.861C47.6397 194.793 47.7592 194.772 47.8724 194.803L54.418 196.617C54.5223 196.646 54.6135 196.717 54.6744 196.817C54.7354 196.916 54.7619 197.037 54.7489 197.157C54.736 197.276 54.6845 197.387 54.6042 197.467C54.5238 197.547 54.4201 197.591 54.3127 197.592V197.592Z" fill="#383838"/>
<path d="M54.5201 190.118C58.4922 190.118 61.7121 186.876 61.7121 182.877C61.7121 178.879 58.4922 175.637 54.5201 175.637C50.5481 175.637 47.3281 178.879 47.3281 182.877C47.3281 186.876 50.5481 190.118 54.5201 190.118Z" fill="#90C0FE"/>
<path d="M54.5193 190.585C53.0051 190.585 51.5249 190.133 50.2658 189.286C49.0068 188.439 48.0255 187.235 47.4461 185.827C46.8666 184.419 46.715 182.869 47.0104 181.374C47.3058 179.879 48.035 178.505 49.1057 177.427C50.1764 176.35 51.5406 175.615 53.0257 175.318C54.5108 175.021 56.0502 175.173 57.4492 175.757C58.8481 176.34 60.0438 177.328 60.8851 178.595C61.7263 179.863 62.1753 181.353 62.1753 182.878C62.173 184.921 61.3656 186.88 59.9303 188.325C58.4951 189.77 56.5491 190.583 54.5193 190.585ZM54.5193 176.104C53.1886 176.104 51.8878 176.501 50.7814 177.246C49.6749 177.99 48.8126 179.048 48.3033 180.285C47.7941 181.523 47.6608 182.885 47.9204 184.199C48.18 185.513 48.8208 186.72 49.7617 187.667C50.7026 188.614 51.9015 189.259 53.2066 189.521C54.5117 189.782 55.8645 189.648 57.0939 189.135C58.3233 188.623 59.374 187.754 60.1133 186.641C60.8526 185.527 61.2473 184.217 61.2473 182.878C61.2453 181.082 60.5358 179.36 59.2745 178.09C58.0132 176.821 56.3031 176.106 54.5193 176.104Z" fill="#383838"/>
<path d="M197.664 206H193.488V203.077C193.488 202.489 193.708 201.926 194.1 201.51C194.491 201.095 195.023 200.862 195.576 200.862C196.13 200.862 196.661 201.095 197.053 201.51C197.444 201.926 197.664 202.489 197.664 203.077V206ZM194.383 205.051H196.77V203.077C196.77 202.741 196.644 202.419 196.42 202.181C196.196 201.944 195.893 201.811 195.576 201.811C195.26 201.811 194.956 201.944 194.732 202.181C194.508 202.419 194.383 202.741 194.383 203.077V205.051Z" fill="#383838"/>
<path d="M197.2 201.796H194.416V168.63H197.2V201.796ZM195.367 200.868H196.249V169.558H195.367V200.868Z" fill="#383838"/>
<path d="M198.476 169.097H193.139L192.096 163.492H199.52L198.476 169.097Z" fill="#90C0FE"/>
<path d="M198.484 169.564H193.13C193.025 169.564 192.924 169.526 192.842 169.457C192.761 169.387 192.706 169.29 192.686 169.182L191.639 163.589C191.626 163.52 191.628 163.449 191.645 163.382C191.661 163.314 191.692 163.251 191.734 163.197C191.777 163.143 191.83 163.1 191.89 163.07C191.951 163.04 192.017 163.025 192.084 163.025H199.53C199.597 163.025 199.663 163.04 199.723 163.07C199.784 163.1 199.837 163.143 199.88 163.197C199.922 163.251 199.953 163.314 199.969 163.382C199.985 163.449 199.987 163.52 199.974 163.589L198.928 169.182C198.908 169.29 198.852 169.387 198.771 169.457C198.69 169.526 198.589 169.564 198.484 169.564ZM193.503 168.618H198.111L198.98 163.971H192.633L193.503 168.618Z" fill="#383838"/>
<path d="M200.905 163.959H190.711C190.637 163.959 190.564 163.942 190.498 163.91C190.432 163.878 190.375 163.831 190.331 163.773C190.288 163.715 190.259 163.648 190.247 163.578C190.234 163.507 190.24 163.435 190.262 163.366L191.486 159.607C191.516 159.514 191.576 159.434 191.657 159.376C191.737 159.319 191.835 159.288 191.935 159.288H199.681C199.781 159.288 199.879 159.319 199.96 159.376C200.04 159.434 200.1 159.514 200.13 159.607L201.354 163.366C201.377 163.435 201.382 163.507 201.37 163.578C201.358 163.648 201.329 163.715 201.285 163.773C201.241 163.831 201.184 163.878 201.118 163.91C201.052 163.942 200.979 163.959 200.905 163.959ZM191.353 163.047H200.263L199.336 160.2H192.281L191.353 163.047Z" fill="#383838"/>
<path d="M38.5119 206H34.3359V203.077C34.3359 202.786 34.39 202.498 34.4949 202.229C34.5998 201.96 34.7536 201.716 34.9475 201.51C35.1414 201.305 35.3716 201.142 35.6249 201.03C35.8782 200.919 36.1497 200.862 36.4239 200.862C36.6981 200.862 36.9697 200.919 37.223 201.03C37.4763 201.142 37.7065 201.305 37.9004 201.51C38.0943 201.716 38.2481 201.96 38.353 202.229C38.4579 202.498 38.5119 202.786 38.5119 203.077V206ZM35.2304 205.051H37.6175V203.077C37.6175 202.741 37.4918 202.419 37.2679 202.181C37.0441 201.944 36.7405 201.811 36.4239 201.811C36.1074 201.811 35.8038 201.944 35.58 202.181C35.3561 202.419 35.2304 202.741 35.2304 203.077V205.051Z" fill="#383838"/>
<path d="M37.5828 201.796H34.7988V168.63H37.5828V201.796ZM35.7503 200.868H36.6314V169.558H35.7503V200.868Z" fill="#383838"/>
<path d="M38.8607 169.097H33.5239L32.4805 163.492H39.9045L38.8607 169.097Z" fill="#90C0FE"/>
<path d="M38.868 169.564H33.5149C33.4099 169.564 33.3082 169.526 33.2271 169.457C33.1461 169.387 33.0907 169.29 33.0706 169.182L32.024 163.589C32.0112 163.52 32.0131 163.449 32.0295 163.382C32.0459 163.314 32.0764 163.251 32.1189 163.197C32.1613 163.143 32.2147 163.1 32.2751 163.07C32.3355 163.04 32.4015 163.025 32.4683 163.025H39.9149C39.9817 163.025 40.0477 163.04 40.1081 163.07C40.1686 163.1 40.2219 163.143 40.2644 163.197C40.3069 163.251 40.3374 163.314 40.3538 163.382C40.3702 163.449 40.372 163.52 40.3592 163.589L39.3126 169.182C39.2924 169.29 39.237 169.387 39.1559 169.457C39.0748 169.526 38.973 169.565 38.868 169.564ZM33.8874 168.618H38.4952L39.3648 163.971H33.0181L33.8874 168.618Z" fill="#383838"/>
<path d="M41.2901 163.959H31.0959C31.0219 163.959 30.949 163.942 30.883 163.91C30.8171 163.878 30.7599 163.831 30.7161 163.773C30.6724 163.715 30.6433 163.648 30.6313 163.578C30.6192 163.507 30.6245 163.435 30.6468 163.366L31.8709 159.607C31.901 159.514 31.9607 159.434 32.0415 159.376C32.1223 159.319 32.2198 159.288 32.32 159.288H40.066C40.1662 159.288 40.2637 159.319 40.3445 159.376C40.4253 159.434 40.485 159.514 40.5151 159.607L41.7392 163.366C41.7614 163.435 41.7668 163.507 41.7547 163.578C41.7427 163.648 41.7136 163.715 41.6698 163.773C41.6261 163.831 41.5689 163.878 41.503 163.91C41.437 163.942 41.3641 163.959 41.2901 163.959ZM31.7381 163.047H40.6479L39.7207 160.2H32.6653L31.7381 163.047Z" fill="#383838"/>
<path d="M226.767 206H5.23397C5.07661 206 4.92568 205.951 4.81441 205.863C4.70314 205.775 4.64062 205.657 4.64062 205.533C4.64062 205.409 4.70314 205.29 4.81441 205.202C4.92568 205.115 5.07661 205.066 5.23397 205.066H226.767C226.925 205.066 227.076 205.115 227.187 205.202C227.298 205.29 227.361 205.409 227.361 205.533C227.361 205.657 227.298 205.775 227.187 205.863C227.076 205.951 226.925 206 226.767 206Z" fill="#383838"/>
</svg>
